<svg xmlns="http://www.w3.org/2000/svg" width="253.14" height="61.061" viewBox="0 0 253.14 61.061"><defs><style>.a{fill:#fff;}</style></defs><g transform="translate(-1047.86 -14340.433)"><path class="a" d="M1293.636,14348.112v14.266h5.014v6.9h-5.014v12.841a3.921,3.921,0,0,0,.925,2.831,3.85,3.85,0,0,0,2.831.942H1301v8.2h-6.273a11.467,11.467,0,0,1-7.845-2.5,10.769,10.769,0,0,1-3.127-8.6v-13.877h-4.607v-6.9h4.552v-14.1Zm-29.291,46.554a14.505,14.505,0,0,1-15.209-15.358v-1.091a18.5,18.5,0,0,1,3.7-11.916,15.208,15.208,0,0,1,20.852-.8,14.594,14.594,0,0,1,3.7,10.51v5.125h-18.04v.167a6.216,6.216,0,0,0,6.439,5.551,16.212,16.212,0,0,0,4.385-.463,23.733,23.733,0,0,0,4.237-1.572l2.35,6.125a19.653,19.653,0,0,1-5.329,2.664A21.65,21.65,0,0,1,1264.345,14394.666Zm-.795-25.386a3.309,3.309,0,0,0-3.127,1.554,10.306,10.306,0,0,0-1.258,4.089l.148.148h8.474v-.777a5.548,5.548,0,0,0-.944-3.608,3.827,3.827,0,0,0-3.312-1.405Zm-32.307,25.386a14.993,14.993,0,0,1-11.1-4.385,15.6,15.6,0,0,1-4.108-10.991v-1.092a18.317,18.317,0,0,1,3.7-11.916,15.172,15.172,0,0,1,20.834-.8,15.006,15.006,0,0,1,3.7,10.51v5.144h-18.041v.167a6.181,6.181,0,0,0,6.421,5.477,16.382,16.382,0,0,0,4.4-.462,23.211,23.211,0,0,0,4.219-1.573l2.35,6.125a19.118,19.118,0,0,1-5.329,2.664A20.344,20.344,0,0,1,1231.243,14394.666Zm-.629-25.386a3.31,3.31,0,0,0-3.127,1.554,10.635,10.635,0,0,0-1.258,4.089l.167.148h8.456v-.777a5.553,5.553,0,0,0-.944-3.608A3.83,3.83,0,0,0,1230.614,14369.28Zm-29.308,11.286h0l3.46-18.5h8.918l-7.2,31.825h-8.307l-5.181-16.931h-.148l-5.181,16.931h-8.308l-7.4-31.678h9.122l3.46,18.67h.24l5.015-18.67h6.272Zm-41.54,4.386a2.719,2.719,0,0,0-1.406-2.2,13.688,13.688,0,0,0-4.866-1.721,21.691,21.691,0,0,1-8.29-3.294,7.681,7.681,0,0,1-2.831-6.272,9.641,9.641,0,0,1,3.442-7.2,13.723,13.723,0,0,1,9.362-2.831,15.664,15.664,0,0,1,9.863,2.831,8.032,8.032,0,0,1,3.46,7.4v.148h-9.363a3.868,3.868,0,0,0-.925-2.812,4.258,4.258,0,0,0-3.035-.98,3.907,3.907,0,0,0-2.664.943,2.5,2.5,0,0,0-1.036,2.184,2.738,2.738,0,0,0,1.258,2.2,13.445,13.445,0,0,0,4.866,1.573,20.344,20.344,0,0,1,8.456,3.294,7.731,7.731,0,0,1,2.831,6.42,8.51,8.51,0,0,1-3.7,7.05,15.953,15.953,0,0,1-10.011,2.831,15.1,15.1,0,0,1-10.195-3.294,8.731,8.731,0,0,1-3.441-7.4v-.148h8.937a3.181,3.181,0,0,0,1.406,3.127,7.979,7.979,0,0,0,3.7,1.11,4.786,4.786,0,0,0,2.979-.8A2.219,2.219,0,0,0,1159.766,14384.952Zm-42.557-22.889.315,4.386a11.751,11.751,0,0,1,3.7-3.7,9.991,9.991,0,0,1,12.231,1.573c1.721,1.85,2.664,5.181,2.664,9.565v20h-9.584v-19.762a4.869,4.869,0,0,0-1.092-3.7,4.422,4.422,0,0,0-3.294-1.092,6.375,6.375,0,0,0-2.5.463,4.182,4.182,0,0,0-1.851,1.406v22.888h-9.751v-31.881h9.085Zm-15.117-5.958h-9.825v-7.993h9.881Zm0,37.932h-9.825v-31.826h9.881Zm-31.455,0v-25.072h-4.589v-6.9h4.533v-3.294a11.472,11.472,0,0,1,3.183-8.455,11.673,11.673,0,0,1,7.79-2.479h6.272v7.956h-3.7a3.329,3.329,0,0,0-3.756,3.756v2.368h6.106v6.883h-6.106v24.924h-9.789v.37Zm-18.855-43.261c0-9.566,5.015-10.344,13.471-10.344v7.531c-3.905,0-5.551.611-5.551,2.979v12.379c0,2.812.148,5.791-2.2,7.678,2.35,1.851,2.2,4.7,2.2,7.679v12.379c0,2.517,1.572,2.979,5.551,2.979v7.456c-8.456,0-13.471-.795-13.471-10.343v-12.472c0-2.035,0-4.236-3.922-4.236v-6.587c3.922,0,3.922-2.351,3.922-4.22Z"/></g></svg>