<svg xmlns="http://www.w3.org/2000/svg" xmlns:xlink="http://www.w3.org/1999/xlink" width="63.548" height="64.194" viewBox="0 0 63.548 64.194"><defs><style>.a,.b{stroke:#000;stroke-miterlimit:10;stroke-width:2px;}.a{fill:url(#a);}.b{fill:none;}</style><linearGradient id="a" y1="0.5" x2="1" y2="0.5" gradientUnits="objectBoundingBox"><stop offset="0" stop-color="#9525db"/><stop offset="1" stop-color="#00ab7d"/></linearGradient></defs><g transform="translate(-885.309 -14338.841)"><path class="a" d="M886.933,14393.053c-1.787-4.248.173-11.8,1.041-16.663s4.34-14.059,5.728-17.53,7.29-12.845,13.713-15.97,10.588-4.513,12.15-1.908a49.776,49.776,0,0,1,3.471,6.074c.7,1.736,1.215,6.075-3.124,5.9,0,0,.694,3.124-1.909,3.992s-7.464.173-9.72-.348a8.436,8.436,0,0,0-3.192,6.075c-.106,3.818,1.8,14.06-1.148,17.7,0,0,3.992-1.734,7.29-1.215,0,0,5.381-8.4,17.358-8.279s19.266,6.892,19.266,14.875-6.248,16.144-16.836,16.144S891.533,14403.988,886.933,14393.053Z"/><path class="b" d="M901.036,14391.882c-1.3-5.468.868-8.938,2.907-11.5"/><path class="b" d="M912.622,14386.132c1.3,3.017,4.036,9.525,14.32,9.525s12.627-5.207,13.148-6.249"/><path class="b" d="M908.283,14356.6a6.11,6.11,0,0,1-4.34-5.076"/><path class="b" d="M917.032,14347.62c-2.457-.651-5.321,0-5.321,2.213s3.645,3.125,8.2,3.125"/></g></svg>